<svg width="31" height="48" fill="none" xmlns="http://www.w3.org/2000/svg"><g clip-path="url(#a)" fill="#fff"><path d="M5.64 47.79a1.56 1.56 0 0 1-.75-2.07l.26-.56a84.55 84.55 0 0 0 2.8-7.07C9.5 33.73 11 28.22 11 24.03c0-.45-.02-.88-.05-1.3-.28-3.5-2.29-7.91-4.53-11.64a73.24 73.24 0 0 0-6-8.53 1.56 1.56 0 0 1 2.38-2c.02.03 2.6 3.07 5.29 7.3 2.67 4.24 5.52 9.6 5.95 14.62.05.5.06 1.02.06 1.55 0 4.88-1.62 10.55-3.2 15.1C9.3 43.64 7.72 47 7.7 47.03a1.55 1.55 0 0 1-2.07.75ZM23.28 47.04c-.02-.03-1.6-3.39-3.19-7.92-1.58-4.54-3.2-10.21-3.2-15.1a19 19 0 0 1 .06-1.54c.44-5.02 3.28-10.38 5.96-14.62C25.6 3.63 28.17.59 28.2.56a1.55 1.55 0 1 1 2.37 2l-.41.51-1.14 1.45c-.94 1.24-2.2 3-3.49 5.01-2.58 4.02-5.18 9.19-5.48 13.2-.04.42-.05.85-.05 1.3-.01 3.67 1.14 8.35 2.46 12.38a92.85 92.85 0 0 0 3.63 9.3 1.56 1.56 0 0 1-2.81 1.33ZM14.14 13.82 9.96 6.51a1.55 1.55 0 0 1 .3-1.92L14.44.75c.6-.54 1.5-.54 2.1 0l4.18 3.84c.54.49.66 1.28.3 1.92l-4.18 7.31a1.56 1.56 0 0 1-2.7 0Zm-.86-7.78 2.21 3.87 2.21-3.87-2.2-2.03-2.22 2.03Z"/></g><defs><clipPath id="a"><path fill="#fff" d="M0 0h31v48H0z"/></clipPath></defs></svg>